<?xml version="1.0" encoding="utf-8"?>
<!-- Generator: Adobe Illustrator 24.0.2, SVG Export Plug-In . SVG Version: 6.00 Build 0)  -->
<!DOCTYPE svg PUBLIC "-//W3C//DTD SVG 1.1//EN" "http://www.w3.org/Graphics/SVG/1.1/DTD/svg11.dtd" [
	<!ENTITY ns_extend "http://ns.adobe.com/Extensibility/1.0/">
	<!ENTITY ns_ai "http://ns.adobe.com/AdobeIllustrator/10.0/">
	<!ENTITY ns_graphs "http://ns.adobe.com/Graphs/1.0/">
	<!ENTITY ns_vars "http://ns.adobe.com/Variables/1.0/">
	<!ENTITY ns_imrep "http://ns.adobe.com/ImageReplacement/1.0/">
	<!ENTITY ns_sfw "http://ns.adobe.com/SaveForWeb/1.0/">
	<!ENTITY ns_custom "http://ns.adobe.com/GenericCustomNamespace/1.0/">
	<!ENTITY ns_adobe_xpath "http://ns.adobe.com/XPath/1.0/">
]>
<svg version="1.1" id="Слой_1" xmlns:x="&ns_extend;" xmlns:i="&ns_ai;" xmlns:graph="&ns_graphs;"
	 xmlns="http://www.w3.org/2000/svg" xmlns:xlink="http://www.w3.org/1999/xlink" x="0px" y="0px" width="160px" height="50px"
	 viewBox="0 0 160 50" style="enable-background:new 0 0 160 50;" xml:space="preserve">
<style type="text/css">
	.st0{fill:#343666;}
	.st1{fill:#20242B;}
</style>
<metadata>
	<sfw  xmlns="&ns_sfw;">
		<slices></slices>
		<sliceSourceBounds  bottomLeftOrigin="true" height="33.708" width="160" x="0" y="-41.854"></sliceSourceBounds>
	</sfw>
</metadata>
<g>
	<g>
		<path class="st0" d="M38.988,33.725h8.706c0.079,0,0.092,0.03,0.04,0.089c-0.102,0.116-0.228,0.217-0.379,0.305
			c-6.61,3.817-13.614,6.249-21.011,7.296c-3.295,0.468-6.894,0.517-10.322,0.356C10.16,41.499,0.426,39.139,0.016,31.624
			c-0.16-2.953,0.922-5.563,2.733-7.975c1.494-1.988,3.391-3.792,5.692-5.411c0.044-0.03,0.061-0.019,0.05,0.032
			c-0.638,3.195-1.249,6.455-2.086,9.605c-0.744,2.794,0.886,5.323,3.551,6.159c3.724,1.168,9.266-0.734,10.701-4.597
			c0.095-0.256,0.339-1.291,0.731-3.104c0.783-3.622,1.566-7.231,2.349-10.828c0.026-0.122-0.023-0.182-0.147-0.18l-3.643,0.057
			c-0.071,0.001-0.109,0.037-0.113,0.109c-0.011,0.238-0.011,0.424-0.06,0.646c-0.896,4.09-1.784,8.181-2.662,12.273
			C17,28.93,16.785,29.384,16.466,29.77c-1.473,1.797-7.128,1.975-6.326-1.515c0.99-4.319,1.919-8.65,2.786-12.993
			c0.011-0.054,0.041-0.094,0.091-0.12c9.428-4.988,20.325-7.712,31.025-6.833c3.88,0.319,8.064,1.434,11.293,3.711
			c2.802,1.978,4.424,5.359,3.656,8.866c-0.816,3.727-3.655,7.173-6.583,9.64c-0.038,0.031-0.082,0.048-0.131,0.049l-8.759,0.006
			c-0.046,0-0.083-0.036-0.083-0.081c0-0.006,0.001-0.012,0.002-0.018l3.157-15.038c0.01-0.051-0.023-0.1-0.073-0.11
			c-0.006-0.001-0.013-0.002-0.02-0.002l-3.676,0.026c-0.063,0-0.098,0.031-0.105,0.094c-0.049,0.4-0.076,0.812-0.157,1.197
			c-1.199,5.669-2.41,11.335-3.635,17C38.917,33.7,38.937,33.725,38.988,33.725z M30.652,18.608L27.423,33.65
			c-0.011,0.05,0.009,0.075,0.06,0.075h3.729c0.059,0,0.108-0.046,0.11-0.105c0.015-0.298,0.04-0.588,0.1-0.86
			c0.829-3.764,1.636-7.532,2.42-11.305c0.198-0.957,0.368-1.882,0.512-2.777c0.017-0.113,0.084-0.17,0.199-0.168l5.169,0.04
			c0.069,0.001,0.111-0.032,0.126-0.1l0.661-2.961c0.015-0.067-0.027-0.134-0.094-0.149c-0.009-0.002-0.018-0.003-0.027-0.003
			l-14.63,0.01c-0.063,0.001-0.098,0.032-0.105,0.094c-0.12,1.023-0.346,2.022-0.677,2.998c-0.024,0.067,0,0.1,0.071,0.1h5.547
			c0.032,0,0.058,0.027,0.058,0.059C30.653,18.6,30.653,18.604,30.652,18.608z"/>
		<path class="st0" d="M61.228,21.499c1.278-4.087,4.257-6.486,8.626-6.115c2.854,0.243,4.319,2.072,4.188,4.904
			c-0.002,0.066-0.036,0.099-0.102,0.1l-2.887,0.06c-0.051,0-0.093-0.04-0.093-0.09c0-0.004,0-0.008,0.001-0.012
			c0.092-0.685,0.047-1.311-0.514-1.785c-1.693-1.435-4.013-0.659-5.226,1.017c-1.241,1.711-2.707,5.817-0.593,7.513
			c1.358,1.089,3.494,0.468,4.62-0.697c0.371-0.382,0.535-0.857,0.698-1.362c0.037-0.114,0.144-0.189,0.264-0.186l2.73,0.071
			c0.096,0.002,0.123,0.046,0.079,0.133c-1.309,2.577-2.453,4.356-5.459,4.923c-2.503,0.473-5.331,0.324-6.494-2.375
			C60.199,25.586,60.57,23.6,61.228,21.499z"/>
		<path class="st0" d="M74.539,25.146c0-4.584,2.705-9.188,7.599-9.734c3.565-0.399,6.225,0.893,6.514,4.754
			c0.249,3.334-1.417,7.113-4.354,8.879C80.815,31.138,74.541,30.637,74.539,25.146z M82.587,17.947
			c-3.01-0.047-4.659,2.822-5.072,5.451c-0.206,1.302,0.023,2.976,1.231,3.693c0.818,0.487,1.689,0.647,2.615,0.481
			c2.778-0.501,4.277-3.514,4.431-6.047C85.919,19.406,84.788,17.979,82.587,17.947z"/>
		<path class="st0" d="M96.453,25.724c-0.004,0.426,0.082,0.444,0.258,0.057c1.411-3.108,2.826-6.231,4.243-9.37
			c0.111-0.246,0.207-0.512,0.288-0.799c0.017-0.062,0.074-0.104,0.138-0.104l4.314,0.045c0.036,0,0.065,0.029,0.064,0.065
			c0,0.004,0,0.008-0.001,0.013l-3.018,14.048c-0.017,0.078-0.065,0.117-0.144,0.117H99.82c-0.058,0-0.082-0.029-0.071-0.086
			c0.646-3.408,1.381-6.798,2.205-10.17c0.152-0.624,0.077-0.656-0.227-0.094c-0.008,0.014-0.073,0.174-0.196,0.481
			c-1.187,2.968-2.448,5.904-3.783,8.808c-0.121,0.267-0.202,0.658-0.34,0.972c-0.026,0.059-0.072,0.089-0.138,0.089h-2.919
			c-0.043,0-0.066-0.022-0.068-0.065c-0.105-3.542-0.096-7.084,0.028-10.627c-0.001-0.027-0.023-0.048-0.05-0.047
			c-0.02,0-0.037,0.013-0.044,0.031c-0.2,0.605-0.359,1.218-0.476,1.839c-0.558,2.942-1.174,5.871-1.847,8.788
			c-0.012,0.054-0.045,0.081-0.1,0.081h-2.835c-0.052,0-0.094-0.043-0.093-0.095c0-0.007,0.001-0.014,0.002-0.02
			c0.978-4.351,1.907-8.688,2.785-13.01c0.066-0.321,0.154-0.679,0.175-1.029c0.003-0.053,0.047-0.094,0.1-0.094l4.356-0.024
			c0.019,0,0.034,0.015,0.034,0.032c0,0,0,0,0,0c-0.065,2.598-0.037,5.198,0.083,7.8C96.441,24.244,96.459,25.033,96.453,25.724z"/>
		<path class="st0" d="M108.131,15.771c0.011-0.059,0.02-0.123,0.028-0.19c0.004-0.052,0.033-0.077,0.086-0.076
			c2.167,0.048,4.334,0.073,6.499,0.076c0.826,0.001,1.396,0.048,1.709,0.139c1.534,0.449,1.984,1.831,1.863,3.363
			c-0.243,3.029-2.265,5.634-5.451,5.679c-1.165,0.017-2.328-0.003-3.489-0.06c-0.053-0.003-0.085,0.022-0.096,0.075l-0.988,4.835
			c-0.022,0.11-0.12,0.19-0.233,0.19l-2.793-0.01c-0.064,0-0.088-0.031-0.073-0.094C106.275,25.075,107.255,20.432,108.131,15.771z
			 M110.665,18.126c-0.22,1.327-0.508,2.639-0.863,3.936c-0.018,0.071,0.009,0.107,0.081,0.109c1.045,0.023,2.092,0.025,3.141,0.008
			c0.805-0.013,1.116-0.152,1.539-0.797c0.489-0.745,1.306-2.368,0.483-3.057c-0.138-0.116-0.262-0.174-0.371-0.175
			c-1.331-0.009-2.656-0.026-3.977-0.052C110.681,18.099,110.667,18.111,110.665,18.126z"/>
		<path class="st0" d="M124.961,15.627c0.029-0.068,0.097-0.111,0.172-0.11l3.45,0.031c0.055,0.001,0.1,0.045,0.102,0.1
			c0.01,0.42-0.018,0.859,0.037,1.267c0.573,4.265,1.13,8.532,1.669,12.801c0.008,0.058-0.018,0.087-0.076,0.087l-3.047-0.021
			c-0.038,0-0.07-0.03-0.071-0.068l-0.164-2.653c-0.004-0.069-0.041-0.104-0.11-0.104l-5.054-0.011
			c-0.077-0.001-0.148,0.042-0.183,0.112l-1.354,2.691c-0.026,0.051-0.067,0.076-0.125,0.075l-2.945-0.037
			c-0.038,0-0.069-0.032-0.069-0.07c0-0.012,0.003-0.023,0.009-0.033c2.38-4.273,4.777-8.551,7.189-12.833
			C124.608,16.461,124.781,16.04,124.961,15.627z M125.986,19.409c-0.92,1.684-1.839,3.362-2.756,5.036
			c-0.009,0.017-0.003,0.037,0.014,0.046c0.005,0.003,0.011,0.004,0.017,0.004l3.433-0.006c0.045-0.001,0.066-0.024,0.062-0.068
			l-0.552-5.135c-0.004-0.043-0.026-0.055-0.065-0.036C126.078,19.281,126.027,19.334,125.986,19.409z"/>
		<path class="st0" d="M141.478,24.916c0.018,0.049,0.072,0.074,0.121,0.055c0.031-0.012,0.053-0.038,0.06-0.07
			c0.567-2.845,1.161-5.692,1.784-8.544c0.047-0.211-0.008-0.512,0.052-0.755c0.017-0.068,0.06-0.102,0.13-0.102h2.887
			c0.078,0,0.109,0.038,0.092,0.113l-2.989,14.061c-0.017,0.081-0.067,0.121-0.149,0.121h-2.754c-0.124,0-0.231-0.088-0.256-0.211
			c-0.103-0.514-0.246-1.018-0.429-1.511c-0.752-2.034-1.523-4.06-2.315-6.078c-0.198-0.502-0.335-1.161-0.586-1.725
			c-0.016-0.034-0.056-0.049-0.09-0.033c-0.019,0.009-0.033,0.026-0.038,0.046l-1.981,9.451c-0.009,0.041-0.034,0.062-0.076,0.062
			h-2.849c-0.077,0-0.107-0.037-0.091-0.112c0.677-3.128,1.356-6.248,2.038-9.362c0.343-1.572,0.628-3.154,0.854-4.745
			c0.005-0.038,0.028-0.057,0.066-0.057l3.033,0.023c0.071,0.001,0.113,0.036,0.126,0.105c0.063,0.327,0.105,0.648,0.228,0.965
			C139.42,19.388,140.465,22.155,141.478,24.916z"/>
		<path class="st0" d="M152.584,21.337c0.053,0.235,0.145,0.252,0.277,0.05l3.766-5.772c0.028-0.043,0.068-0.064,0.12-0.063
			l3.206,0.04c0.05,0.001,0.06,0.022,0.031,0.062c-2.331,3.296-4.137,5.809-5.42,7.538c-0.611,0.821-0.959,1.375-1.186,2.415
			c-0.298,1.367-0.584,2.736-0.857,4.105c-0.011,0.056-0.045,0.084-0.102,0.084h-2.866c-0.052,0-0.072-0.025-0.062-0.076
			c0.356-1.591,0.719-3.172,1.089-4.745c0.199-0.844-0.423-1.853-0.669-2.653c-0.685-2.228-1.393-4.448-2.124-6.661
			c-0.018-0.053,0.001-0.079,0.057-0.079h3.365c0.064,0,0.115,0.052,0.115,0.117c0,0.001,0,0.001,0,0.002
			c-0.003,0.371,0.018,0.666,0.117,1.029C151.868,18.314,152.249,19.85,152.584,21.337z"/>
	</g>
	<g>
		<g>
			<path class="st1" d="M57.152,36.129v-3.451h-1.289v-0.461h3.101v0.461H57.67v3.451H57.152z"/>
			<path class="st1" d="M59.776,36.129v-3.913h1.735c0.349,0,0.614,0.036,0.795,0.106c0.182,0.07,0.327,0.194,0.435,0.372
				c0.108,0.178,0.163,0.375,0.163,0.591c0,0.277-0.09,0.511-0.269,0.702c-0.179,0.19-0.457,0.312-0.833,0.362
				c0.137,0.067,0.241,0.132,0.312,0.195c0.151,0.139,0.295,0.313,0.43,0.521l0.68,1.065h-0.651l-0.518-0.814
				c-0.151-0.235-0.275-0.415-0.373-0.539c-0.098-0.125-0.185-0.212-0.263-0.262c-0.077-0.05-0.156-0.084-0.236-0.105
				c-0.059-0.012-0.155-0.018-0.288-0.018h-0.6v1.738H59.776z M60.294,33.943h1.113c0.237,0,0.421-0.025,0.555-0.073
				c0.134-0.049,0.235-0.127,0.305-0.235c0.069-0.108,0.104-0.224,0.104-0.35c0-0.185-0.067-0.337-0.202-0.457
				c-0.134-0.119-0.347-0.179-0.636-0.179h-1.238V33.943z"/>
			<path class="st1" d="M63.56,36.129l1.503-3.913h0.558l1.601,3.913h-0.59l-0.456-1.185H64.54l-0.43,1.185H63.56z M64.689,34.522
				h1.326l-0.409-1.083c-0.124-0.329-0.217-0.599-0.278-0.812c-0.05,0.251-0.12,0.5-0.211,0.748L64.689,34.522z"/>
			<path class="st1" d="M67.903,36.129v-3.913h0.531l2.055,3.072v-3.072h0.496v3.913h-0.531l-2.055-3.074v3.074H67.903z"/>
			<path class="st1" d="M71.953,34.872l0.488-0.043c0.023,0.196,0.077,0.357,0.161,0.482c0.085,0.125,0.216,0.227,0.394,0.304
				c0.178,0.078,0.378,0.116,0.6,0.116c0.198,0,0.372-0.029,0.523-0.088c0.151-0.058,0.264-0.139,0.337-0.241
				c0.074-0.102,0.111-0.213,0.111-0.334c0-0.123-0.036-0.231-0.107-0.322c-0.071-0.092-0.189-0.168-0.352-0.231
				c-0.105-0.041-0.337-0.105-0.697-0.191c-0.359-0.086-0.611-0.168-0.755-0.245c-0.187-0.097-0.326-0.219-0.418-0.364
				c-0.092-0.144-0.137-0.307-0.137-0.486c0-0.198,0.056-0.383,0.168-0.554c0.112-0.172,0.276-0.302,0.491-0.391
				c0.216-0.089,0.455-0.134,0.718-0.134c0.29,0,0.546,0.047,0.767,0.14c0.222,0.094,0.392,0.231,0.511,0.413
				c0.119,0.181,0.183,0.387,0.192,0.617l-0.496,0.037c-0.027-0.247-0.117-0.433-0.271-0.561c-0.154-0.126-0.381-0.189-0.682-0.189
				c-0.313,0-0.542,0.057-0.684,0.171c-0.143,0.115-0.215,0.253-0.215,0.415c0,0.141,0.051,0.257,0.152,0.347
				c0.1,0.091,0.36,0.184,0.781,0.279c0.42,0.095,0.709,0.178,0.866,0.249c0.227,0.106,0.396,0.238,0.504,0.4
				c0.108,0.161,0.163,0.346,0.163,0.556c0,0.208-0.06,0.404-0.179,0.589c-0.119,0.184-0.29,0.328-0.514,0.43
				c-0.224,0.101-0.475,0.153-0.754,0.153c-0.354,0-0.651-0.052-0.89-0.155c-0.239-0.102-0.427-0.258-0.563-0.466
				C72.032,35.368,71.96,35.133,71.953,34.872z"/>
			<path class="st1" d="M76.048,36.129v-3.913h1.476c0.26,0,0.458,0.013,0.595,0.038c0.192,0.031,0.354,0.093,0.483,0.182
				c0.13,0.091,0.234,0.217,0.314,0.378c0.079,0.162,0.119,0.34,0.119,0.534c0,0.333-0.106,0.614-0.317,0.845
				c-0.212,0.23-0.594,0.345-1.148,0.345h-1.004v1.591H76.048z M76.566,34.077h1.012c0.335,0,0.572-0.063,0.712-0.186
				c0.141-0.125,0.211-0.301,0.211-0.526c0-0.164-0.041-0.304-0.124-0.42c-0.082-0.116-0.192-0.194-0.327-0.231
				c-0.087-0.024-0.248-0.036-0.483-0.036h-1.001V34.077z"/>
			<path class="st1" d="M79.809,34.223c0-0.649,0.175-1.158,0.523-1.525c0.349-0.368,0.799-0.551,1.351-0.551
				c0.361,0,0.686,0.086,0.977,0.259c0.29,0.172,0.511,0.413,0.663,0.722c0.152,0.308,0.229,0.659,0.229,1.05
				c0,0.397-0.081,0.751-0.24,1.065c-0.161,0.313-0.387,0.55-0.681,0.711c-0.293,0.161-0.61,0.241-0.95,0.241
				c-0.369,0-0.697-0.089-0.988-0.267c-0.29-0.178-0.509-0.42-0.659-0.729C79.884,34.893,79.809,34.567,79.809,34.223z
				 M80.344,34.232c0,0.471,0.127,0.843,0.38,1.113c0.254,0.272,0.572,0.407,0.954,0.407c0.39,0,0.711-0.137,0.962-0.411
				c0.252-0.275,0.377-0.663,0.377-1.166c0-0.319-0.054-0.597-0.161-0.834c-0.108-0.238-0.265-0.421-0.472-0.553
				c-0.208-0.13-0.441-0.196-0.698-0.196c-0.367,0-0.682,0.126-0.946,0.378C80.476,33.222,80.344,33.642,80.344,34.232z"/>
			<path class="st1" d="M84.5,36.129v-3.913h1.734c0.349,0,0.614,0.036,0.795,0.106c0.181,0.07,0.327,0.194,0.435,0.372
				c0.108,0.178,0.163,0.375,0.163,0.591c0,0.277-0.091,0.511-0.269,0.702c-0.18,0.19-0.458,0.312-0.833,0.362
				c0.137,0.067,0.241,0.132,0.313,0.195c0.151,0.139,0.294,0.313,0.429,0.521l0.681,1.065h-0.651l-0.518-0.814
				c-0.151-0.235-0.276-0.415-0.373-0.539c-0.098-0.125-0.186-0.212-0.263-0.262c-0.078-0.05-0.156-0.084-0.236-0.105
				c-0.059-0.012-0.155-0.018-0.289-0.018h-0.6v1.738H84.5z M85.018,33.943h1.113c0.236,0,0.421-0.025,0.555-0.073
				c0.133-0.049,0.234-0.127,0.304-0.235c0.069-0.108,0.103-0.224,0.103-0.35c0-0.185-0.067-0.337-0.202-0.457
				c-0.134-0.119-0.346-0.179-0.636-0.179h-1.239V33.943z"/>
			<path class="st1" d="M89.61,36.129v-3.451H88.32v-0.461h3.101v0.461h-1.295v3.451H89.61z"/>
			<path class="st1" d="M96.094,35.668c-0.158,0.176-0.331,0.308-0.517,0.396c-0.186,0.088-0.389,0.133-0.606,0.133
				c-0.401,0-0.718-0.136-0.953-0.405c-0.191-0.221-0.286-0.468-0.286-0.739c0-0.243,0.078-0.46,0.234-0.655
				c0.155-0.195,0.388-0.366,0.697-0.514c-0.176-0.203-0.293-0.368-0.352-0.494c-0.058-0.126-0.088-0.248-0.088-0.365
				c0-0.235,0.093-0.439,0.277-0.612c0.184-0.174,0.416-0.261,0.695-0.261c0.266,0,0.485,0.082,0.655,0.246
				c0.169,0.164,0.254,0.36,0.254,0.59c0,0.372-0.247,0.69-0.739,0.953l0.702,0.895c0.081-0.157,0.143-0.338,0.188-0.544
				l0.499,0.107c-0.085,0.341-0.202,0.622-0.347,0.843c0.18,0.238,0.384,0.439,0.611,0.6l-0.323,0.382
				C96.501,36.096,96.301,35.911,96.094,35.668z M95.792,35.288l-0.881-1.092c-0.26,0.155-0.434,0.299-0.525,0.431
				c-0.092,0.133-0.137,0.264-0.137,0.393c0,0.158,0.064,0.323,0.19,0.495c0.126,0.17,0.305,0.255,0.537,0.255
				c0.143,0,0.293-0.044,0.446-0.135C95.577,35.547,95.701,35.431,95.792,35.288z M95.118,33.628
				c0.208-0.123,0.343-0.231,0.404-0.323c0.061-0.092,0.093-0.194,0.093-0.306c0-0.134-0.043-0.243-0.127-0.328
				c-0.085-0.084-0.19-0.126-0.317-0.126c-0.129,0-0.237,0.041-0.323,0.125c-0.086,0.084-0.129,0.186-0.129,0.307
				c0,0.06,0.015,0.124,0.046,0.191c0.031,0.067,0.078,0.137,0.14,0.212L95.118,33.628z"/>
			<path class="st1" d="M99.608,36.129v-3.913h0.518v3.451h1.926v0.461H99.608z"/>
			<path class="st1" d="M102.786,34.223c0-0.649,0.175-1.158,0.523-1.525c0.349-0.368,0.8-0.551,1.351-0.551
				c0.361,0,0.687,0.086,0.978,0.259c0.29,0.172,0.511,0.413,0.663,0.722c0.152,0.308,0.229,0.659,0.229,1.05
				c0,0.397-0.081,0.751-0.24,1.065c-0.161,0.313-0.387,0.55-0.681,0.711c-0.293,0.161-0.61,0.241-0.95,0.241
				c-0.369,0-0.697-0.089-0.987-0.267c-0.29-0.178-0.51-0.42-0.66-0.729C102.86,34.893,102.786,34.567,102.786,34.223z
				 M103.319,34.232c0,0.471,0.127,0.843,0.38,1.113c0.253,0.272,0.571,0.407,0.954,0.407c0.39,0,0.71-0.137,0.963-0.411
				c0.252-0.275,0.377-0.663,0.377-1.166c0-0.319-0.054-0.597-0.161-0.834c-0.108-0.238-0.265-0.421-0.473-0.553
				c-0.207-0.13-0.44-0.196-0.697-0.196c-0.366,0-0.682,0.126-0.946,0.378C103.452,33.222,103.319,33.642,103.319,34.232z"/>
			<path class="st1" d="M109.299,34.594v-0.459l1.657-0.002v1.452c-0.254,0.203-0.516,0.356-0.787,0.458
				c-0.271,0.101-0.548,0.153-0.833,0.153c-0.384,0-0.733-0.082-1.047-0.247c-0.315-0.165-0.552-0.403-0.711-0.714
				c-0.161-0.312-0.24-0.66-0.24-1.044c0-0.38,0.08-0.736,0.239-1.066c0.158-0.33,0.388-0.575,0.687-0.735
				c0.299-0.161,0.644-0.24,1.033-0.24c0.283,0,0.539,0.046,0.767,0.138c0.229,0.092,0.409,0.219,0.538,0.383
				c0.13,0.164,0.229,0.377,0.296,0.64l-0.467,0.128c-0.059-0.199-0.133-0.356-0.219-0.47c-0.087-0.113-0.212-0.205-0.374-0.273
				c-0.162-0.069-0.342-0.103-0.539-0.103c-0.237,0-0.442,0.037-0.614,0.108c-0.172,0.072-0.312,0.167-0.417,0.285
				c-0.106,0.117-0.189,0.247-0.247,0.387c-0.1,0.243-0.15,0.504-0.15,0.788c0,0.348,0.06,0.64,0.18,0.875
				c0.121,0.235,0.295,0.41,0.525,0.523c0.23,0.114,0.473,0.171,0.731,0.171c0.224,0,0.443-0.043,0.656-0.13
				c0.213-0.086,0.376-0.178,0.486-0.276v-0.729H109.299z"/>
			<path class="st1" d="M112.081,36.129v-3.913h0.517v3.913H112.081z"/>
			<path class="st1" d="M113.609,34.872l0.488-0.043c0.023,0.196,0.077,0.357,0.162,0.482c0.084,0.125,0.216,0.227,0.393,0.304
				c0.178,0.078,0.378,0.116,0.6,0.116c0.197,0,0.372-0.029,0.523-0.088c0.152-0.058,0.264-0.139,0.338-0.241
				c0.073-0.102,0.11-0.213,0.11-0.334c0-0.123-0.036-0.231-0.107-0.322c-0.071-0.092-0.189-0.168-0.352-0.231
				c-0.105-0.041-0.336-0.105-0.696-0.191c-0.359-0.086-0.611-0.168-0.756-0.245c-0.186-0.097-0.326-0.219-0.417-0.364
				c-0.092-0.144-0.138-0.307-0.138-0.486c0-0.198,0.056-0.383,0.168-0.554c0.112-0.172,0.276-0.302,0.492-0.391
				c0.216-0.089,0.455-0.134,0.718-0.134c0.29,0,0.545,0.047,0.767,0.14c0.221,0.094,0.392,0.231,0.511,0.413
				c0.12,0.181,0.183,0.387,0.192,0.617l-0.496,0.037c-0.027-0.247-0.117-0.433-0.271-0.561c-0.154-0.126-0.382-0.189-0.682-0.189
				c-0.314,0-0.541,0.057-0.684,0.171c-0.143,0.115-0.216,0.253-0.216,0.415c0,0.141,0.052,0.257,0.153,0.347
				c0.099,0.091,0.359,0.184,0.78,0.279c0.42,0.095,0.709,0.178,0.866,0.249c0.229,0.106,0.397,0.238,0.504,0.4
				c0.109,0.161,0.163,0.346,0.163,0.556c0,0.208-0.059,0.404-0.179,0.589c-0.119,0.184-0.29,0.328-0.513,0.43
				c-0.223,0.101-0.475,0.153-0.755,0.153c-0.354,0-0.65-0.052-0.889-0.155c-0.239-0.102-0.428-0.258-0.564-0.466
				C113.688,35.368,113.615,35.133,113.609,34.872z"/>
			<path class="st1" d="M118.7,36.129v-3.451h-1.289v-0.461h3.101v0.461h-1.295v3.451H118.7z"/>
			<path class="st1" d="M121.404,36.129v-3.913h0.517v3.913H121.404z"/>
			<path class="st1" d="M125.9,34.757l0.518,0.132c-0.109,0.425-0.304,0.749-0.586,0.972c-0.282,0.223-0.626,0.335-1.034,0.335
				c-0.423,0-0.765-0.086-1.029-0.258c-0.264-0.171-0.466-0.42-0.604-0.746c-0.137-0.326-0.206-0.676-0.206-1.049
				c0-0.407,0.078-0.763,0.233-1.066c0.156-0.304,0.377-0.535,0.665-0.692c0.287-0.157,0.604-0.236,0.949-0.236
				c0.391,0,0.721,0.1,0.987,0.299c0.267,0.199,0.453,0.48,0.558,0.841l-0.51,0.121c-0.091-0.285-0.223-0.493-0.396-0.622
				c-0.172-0.13-0.389-0.195-0.651-0.195c-0.301,0-0.552,0.072-0.753,0.217c-0.203,0.143-0.344,0.337-0.426,0.58
				c-0.082,0.244-0.123,0.494-0.123,0.751c0,0.333,0.049,0.623,0.146,0.872c0.097,0.248,0.248,0.433,0.452,0.556
				c0.205,0.123,0.427,0.184,0.665,0.184c0.29,0,0.536-0.084,0.736-0.251C125.693,35.335,125.829,35.087,125.9,34.757z"/>
			<path class="st1" d="M127.153,34.872l0.488-0.043c0.023,0.196,0.077,0.357,0.162,0.482c0.084,0.125,0.216,0.227,0.393,0.304
				c0.178,0.078,0.378,0.116,0.6,0.116c0.197,0,0.372-0.029,0.523-0.088c0.152-0.058,0.264-0.139,0.338-0.241
				c0.073-0.102,0.11-0.213,0.11-0.334c0-0.123-0.036-0.231-0.107-0.322c-0.071-0.092-0.189-0.168-0.352-0.231
				c-0.105-0.041-0.336-0.105-0.696-0.191c-0.359-0.086-0.611-0.168-0.756-0.245c-0.186-0.097-0.326-0.219-0.417-0.364
				c-0.092-0.144-0.138-0.307-0.138-0.486c0-0.198,0.056-0.383,0.168-0.554c0.112-0.172,0.276-0.302,0.492-0.391
				c0.216-0.089,0.455-0.134,0.718-0.134c0.29,0,0.545,0.047,0.767,0.14c0.221,0.094,0.392,0.231,0.511,0.413
				c0.12,0.181,0.183,0.387,0.192,0.617l-0.496,0.037c-0.027-0.247-0.117-0.433-0.271-0.561c-0.154-0.126-0.382-0.189-0.682-0.189
				c-0.314,0-0.541,0.057-0.684,0.171c-0.143,0.115-0.216,0.253-0.216,0.415c0,0.141,0.052,0.257,0.153,0.347
				c0.099,0.091,0.359,0.184,0.78,0.279c0.42,0.095,0.709,0.178,0.866,0.249c0.229,0.106,0.397,0.238,0.504,0.4
				c0.109,0.161,0.163,0.346,0.163,0.556c0,0.208-0.059,0.404-0.179,0.589c-0.119,0.184-0.29,0.328-0.513,0.43
				c-0.223,0.101-0.475,0.153-0.755,0.153c-0.354,0-0.65-0.052-0.889-0.155c-0.239-0.102-0.428-0.258-0.564-0.466
				C127.231,35.368,127.159,35.133,127.153,34.872z"/>
		</g>
	</g>
</g>
</svg>
